<?xml version="1.0" encoding="UTF-8"?><svg id="Capa_1" xmlns="http://www.w3.org/2000/svg" viewBox="0 0 841.89 595.28"><defs><style>.cls-1{fill:#1d1d1b;}</style></defs><path class="cls-1" d="M420.98,315.24l-.17-.06c-.37-.13-36.93-13.19-38.19-53.02v-29.54s75.86,0,75.86,0v28.68c.02,.36,2.09,39.2-37.33,53.88l-.17,.06Zm-37.33-81.6v28.5c1.19,37.71,34.63,51,37.33,52.01,38.51-14.46,36.51-52.43,36.49-52.82v-27.69h-73.81Z"/><path class="cls-1" d="M391.94,262.77c-2.42,0-4.38-1.97-4.38-4.38s1.97-4.38,4.38-4.38,4.38,1.97,4.38,4.38-1.97,4.38-4.38,4.38Zm0-7.74c-1.85,0-3.36,1.51-3.36,3.36s1.51,3.36,3.36,3.36,3.36-1.51,3.36-3.36-1.51-3.36-3.36-3.36Z"/><path class="cls-1" d="M402.32,262.77c-2.42,0-4.38-1.97-4.38-4.38s1.97-4.38,4.38-4.38,4.38,1.97,4.38,4.38-1.97,4.38-4.38,4.38Zm0-7.74c-1.85,0-3.36,1.51-3.36,3.36s1.51,3.36,3.36,3.36,3.36-1.51,3.36-3.36-1.51-3.36-3.36-3.36Z"/><path class="cls-1" d="M412.64,262.77c-2.42,0-4.38-1.97-4.38-4.38s1.97-4.38,4.38-4.38,4.38,1.97,4.38,4.38-1.97,4.38-4.38,4.38Zm0-7.74c-1.85,0-3.36,1.51-3.36,3.36s1.51,3.36,3.36,3.36,3.36-1.51,3.36-3.36-1.51-3.36-3.36-3.36Z"/><rect class="cls-1" x="420.38" y="233.28" width="1.03" height="81.41"/><rect class="cls-1" x="421.11" y="260.79" width="36.86" height="1.03"/><path class="cls-1" d="M397.38,272.32c-2.42,0-4.38-1.97-4.38-4.38s1.97-4.38,4.38-4.38,4.38,1.97,4.38,4.38-1.97,4.38-4.38,4.38Zm0-7.74c-1.85,0-3.36,1.51-3.36,3.36s1.51,3.36,3.36,3.36,3.36-1.51,3.36-3.36-1.51-3.36-3.36-3.36Z"/><path class="cls-1" d="M407.73,272.32c-2.42,0-4.38-1.97-4.38-4.38s1.97-4.38,4.38-4.38,4.38,1.97,4.38,4.38-1.97,4.38-4.38,4.38Zm0-7.74c-1.85,0-3.36,1.51-3.36,3.36s1.51,3.36,3.36,3.36,3.36-1.51,3.36-3.36-1.51-3.36-3.36-3.36Z"/><path class="cls-1" d="M402.32,281.86c-2.42,0-4.38-1.97-4.38-4.38s1.97-4.38,4.38-4.38,4.38,1.97,4.38,4.38-1.97,4.38-4.38,4.38Zm0-7.74c-1.85,0-3.36,1.51-3.36,3.36s1.51,3.36,3.36,3.36,3.36-1.51,3.36-3.36-1.51-3.36-3.36-3.36Z"/><path class="cls-1" d="M457.81,245.75l-.5-.1c-3.59-.69-5.28-2.52-6.04-3.8-.64,1.49-2.16,3.67-5.66,3.81-3.47,.13-5.28-1.98-6.12-3.49-.66,1.45-2.3,3.14-5.91,3.28-3.57,.11-5.22-1.7-5.96-3.14-1.21,2.6-4.47,3.35-6.29,3.35h-.51v-1.02s.51,0,.51,0c.22,0,5.34-.06,5.71-4.1l1.02-.03c.02,.17,.65,4.12,5.49,3.91,5.17-.2,5.31-3.81,5.31-3.84l1.01-.13c.05,.18,1.21,4.42,5.7,4.18,4.47-.19,5.09-4.16,5.11-4.33l1.01-.04c.03,.14,.85,3.42,5.82,4.38l.5,.1-.19,1.01Z"/><path class="cls-1" d="M458.08,255.35l-.5-.1c-3.59-.69-5.28-2.52-6.04-3.8-.64,1.49-2.16,3.67-5.66,3.81-3.47,.12-5.28-1.98-6.12-3.49-.66,1.45-2.3,3.14-5.91,3.28-3.57,.1-5.22-1.7-5.96-3.14-1.21,2.6-4.47,3.35-6.29,3.35h-.51v-1.02s.51,0,.51,0c.22,0,5.34-.06,5.71-4.1l1.02-.03c.02,.17,.66,4.13,5.49,3.91,5.17-.2,5.31-3.81,5.31-3.84l1.01-.13c.05,.18,1.21,4.41,5.7,4.18,4.47-.19,5.09-4.16,5.11-4.33l1.01-.04c.03,.14,.85,3.42,5.82,4.38l.5,.1-.19,1.01Z"/><polygon class="cls-1" points="438.8 294.43 427.61 283.21 421.38 289.48 420.65 288.75 427.61 281.76 438.8 292.98 444.65 287.12 449.34 291.83 448.61 292.55 444.65 288.57 438.8 294.43"/><rect class="cls-1" x="437.75" y="274.64" width="1.03" height="18.06"/><rect class="cls-1" x="438.02" y="277.46" width="3.1" height="1.02" transform="translate(-79.43 311.63) rotate(-36.02)"/><rect class="cls-1" x="436.08" y="277.62" width="1.03" height="3.67" transform="translate(-38.11 487.69) rotate(-56.31)"/><path class="cls-1" d="M436.02,283.62c-2.99-.91-5-3.63-5-6.76,0-3.9,3.17-7.07,7.07-7.07s7.07,3.17,7.07,7.07c0,3.07-1.96,5.78-4.89,6.72l-.32-.98c2.5-.81,4.18-3.12,4.18-5.75,0-3.33-2.71-6.04-6.04-6.04s-6.04,2.71-6.04,6.04c0,2.68,1.72,5,4.27,5.78l-.3,.98Z"/></svg>