<?xml version="1.0" encoding="utf-8"?>
<!-- Generator: Adobe Illustrator 26.5.0, SVG Export Plug-In . SVG Version: 6.00 Build 0)  -->
<svg version="1.1" id="Capa_1" xmlns="http://www.w3.org/2000/svg" xmlns:xlink="http://www.w3.org/1999/xlink" x="0px" y="0px"
	 viewBox="0 0 130.62 143.16" style="enable-background:new 0 0 130.62 143.16;" xml:space="preserve">
<style type="text/css">
	<!-- .st0{fill:#B4963A;} -->
</style>
<g>
	<path class="st0" d="M64.69,112.36l-0.17-0.06c-0.37-0.13-36.93-13.19-38.19-53.02l0-29.54h75.86v28.68
		c0.02,0.36,2.09,39.2-37.33,53.88L64.69,112.36z M27.36,30.76v28.5c1.19,37.71,34.63,51,37.33,52.01
		c38.51-14.46,36.51-52.43,36.49-52.82l0-27.69H27.36z"/>
</g>
<g>
	<path class="st0" d="M35.65,59.89c-2.42,0-4.38-1.97-4.38-4.38c0-2.42,1.97-4.38,4.38-4.38c2.42,0,4.38,1.97,4.38,4.38
		C40.04,57.92,38.07,59.89,35.65,59.89z M35.65,52.15c-1.85,0-3.36,1.51-3.36,3.36s1.51,3.36,3.36,3.36c1.85,0,3.36-1.51,3.36-3.36
		S37.5,52.15,35.65,52.15z"/>
</g>
<g>
	<path class="st0" d="M46.03,59.89c-2.42,0-4.38-1.97-4.38-4.38c0-2.42,1.97-4.38,4.38-4.38s4.38,1.97,4.38,4.38
		C50.42,57.92,48.45,59.89,46.03,59.89z M46.03,52.15c-1.85,0-3.36,1.51-3.36,3.36s1.51,3.36,3.36,3.36s3.36-1.51,3.36-3.36
		S47.88,52.15,46.03,52.15z"/>
</g>
<g>
	<path class="st0" d="M56.35,59.89c-2.42,0-4.38-1.97-4.38-4.38c0-2.42,1.97-4.38,4.38-4.38s4.38,1.97,4.38,4.38
		C60.74,57.92,58.77,59.89,56.35,59.89z M56.35,52.15c-1.85,0-3.36,1.51-3.36,3.36s1.51,3.36,3.36,3.36s3.36-1.51,3.36-3.36
		S58.2,52.15,56.35,52.15z"/>
</g>
<g>
	<rect x="64.1" y="30.4" class="st0" width="1.03" height="81.41"/>
</g>
<g>
	<rect x="64.82" y="57.91" class="st0" width="36.86" height="1.03"/>
</g>
<g>
	<path class="st0" d="M41.1,69.44c-2.42,0-4.38-1.97-4.38-4.38c0-2.42,1.97-4.38,4.38-4.38s4.38,1.97,4.38,4.38
		C45.48,67.47,43.51,69.44,41.1,69.44z M41.1,61.7c-1.85,0-3.36,1.51-3.36,3.36c0,1.85,1.51,3.36,3.36,3.36s3.36-1.51,3.36-3.36
		C44.45,63.21,42.95,61.7,41.1,61.7z"/>
</g>
<g>
	<path class="st0" d="M51.45,69.44c-2.42,0-4.38-1.97-4.38-4.38c0-2.42,1.97-4.38,4.38-4.38s4.38,1.97,4.38,4.38
		C55.83,67.47,53.86,69.44,51.45,69.44z M51.45,61.7c-1.85,0-3.36,1.51-3.36,3.36c0,1.85,1.51,3.36,3.36,3.36s3.36-1.51,3.36-3.36
		C54.8,63.21,53.3,61.7,51.45,61.7z"/>
</g>
<g>
	<path class="st0" d="M46.03,78.98c-2.42,0-4.38-1.97-4.38-4.38c0-2.42,1.97-4.38,4.38-4.38s4.38,1.97,4.38,4.38
		C50.42,77.01,48.45,78.98,46.03,78.98z M46.03,71.24c-1.85,0-3.36,1.51-3.36,3.36c0,1.85,1.51,3.36,3.36,3.36s3.36-1.51,3.36-3.36
		C49.39,72.74,47.88,71.24,46.03,71.24z"/>
</g>
<g>
	<path class="st0" d="M101.53,42.87l-0.5-0.1c-3.59-0.69-5.28-2.52-6.04-3.8c-0.64,1.49-2.16,3.67-5.66,3.81
		c-3.47,0.13-5.28-1.98-6.12-3.49c-0.66,1.45-2.3,3.14-5.91,3.28c-3.57,0.11-5.22-1.7-5.96-3.14c-1.21,2.6-4.47,3.35-6.29,3.35
		h-0.51l0-1.02l0.51,0c0.22,0,5.34-0.06,5.71-4.1l1.02-0.03c0.02,0.17,0.65,4.12,5.49,3.91c5.17-0.2,5.31-3.81,5.31-3.84l1.01-0.13
		c0.05,0.18,1.21,4.42,5.7,4.18c4.47-0.19,5.09-4.16,5.11-4.33l1.01-0.04c0.03,0.14,0.85,3.42,5.82,4.38l0.5,0.1L101.53,42.87z"/>
</g>
<g>
	<path class="st0" d="M101.79,52.47l-0.5-0.1c-3.59-0.69-5.28-2.52-6.04-3.8c-0.64,1.49-2.16,3.67-5.66,3.81
		c-3.47,0.12-5.28-1.98-6.12-3.49c-0.66,1.45-2.3,3.14-5.91,3.28c-3.57,0.1-5.22-1.7-5.96-3.14c-1.21,2.6-4.47,3.35-6.29,3.35h-0.51
		l0-1.02l0.51,0c0.22,0,5.34-0.06,5.71-4.1l1.02-0.03c0.02,0.17,0.66,4.13,5.49,3.91c5.17-0.2,5.31-3.81,5.31-3.84l1.01-0.13
		c0.05,0.18,1.21,4.41,5.7,4.18c4.47-0.19,5.09-4.16,5.11-4.33l1.01-0.04c0.03,0.14,0.85,3.42,5.82,4.38l0.5,0.1L101.79,52.47z"/>
</g>
<g>
	<polygon class="st0" points="82.52,91.55 71.33,80.33 65.09,86.6 64.37,85.87 71.33,78.88 82.52,90.1 88.36,84.24 93.05,88.95 
		92.33,89.67 88.36,85.69 	"/>
</g>
<g>
	<rect x="81.46" y="71.76" class="st0" width="1.03" height="18.06"/>
</g>
<g>
	
		<rect x="81.73" y="74.58" transform="matrix(0.8088 -0.5881 0.5881 0.8088 -28.2373 63.329)" class="st0" width="3.1" height="1.02"/>
</g>
<g>
	
		<rect x="79.79" y="74.74" transform="matrix(0.5547 -0.832 0.832 0.5547 -27.9524 100.9137)" class="st0" width="1.03" height="3.67"/>
</g>
<g>
	<path class="st0" d="M79.74,80.74c-2.99-0.91-5-3.63-5-6.76c0-3.9,3.17-7.07,7.07-7.07c3.9,0,7.07,3.17,7.07,7.07
		c0,3.07-1.96,5.78-4.89,6.72l-0.32-0.98c2.5-0.81,4.18-3.12,4.18-5.75c0-3.33-2.71-6.04-6.04-6.04s-6.04,2.71-6.04,6.04
		c0,2.68,1.72,5,4.27,5.78L79.74,80.74z"/>
</g>
</svg>
