<?xml version="1.0" encoding="utf-8"?>
<!-- Generator: Adobe Illustrator 26.5.0, SVG Export Plug-In . SVG Version: 6.00 Build 0)  -->
<svg version="1.1" id="Capa_1" xmlns="http://www.w3.org/2000/svg" xmlns:xlink="http://www.w3.org/1999/xlink" x="0px" y="0px"
	 viewBox="0 0 337.27 184.49" style="enable-background:new 0 0 337.27 184.49;" xml:space="preserve">
<g>
	<path class="st0" d="M25.05,154.3l1.08-0.52c0.98,1.85,2.55,3.6,5.91,3.6c2.74,0,4.98-1.6,4.98-4.24c0-2.43-1.35-3.75-4.28-5.11
		l-1.94-0.89c-2.92-1.35-4.37-2.74-4.37-5.38c0-2.89,2.31-4.68,5.14-4.68c2.8,0,4.37,1.45,5.35,3.01l-0.98,0.65
		c-0.86-1.38-2.06-2.55-4.37-2.55c-2.46,0-3.91,1.42-3.91,3.54c0,2.09,1.05,3.11,3.63,4.31l1.94,0.89c3.38,1.54,5.01,3.32,5.01,6.21
		c0,3.26-2.58,5.35-6.18,5.35C28.1,158.48,26.07,156.39,25.05,154.3z"/>
	<path class="st0" d="M50.79,147.78c0-6.37,4.8-10.7,10.7-10.7s10.7,4.34,10.7,10.7c0,6.37-4.8,10.7-10.7,10.7
		S50.79,154.14,50.79,147.78z M70.91,147.78c0-5.47-4.03-9.56-9.41-9.56s-9.41,4.09-9.41,9.56s4.03,9.57,9.41,9.57
		S70.91,153.25,70.91,147.78z"/>
	<path class="st0" d="M88.07,141.13c-0.4-0.52-0.95-1.38-0.95-1.38s0.09,0.95,0.09,1.57v16.92h-1.17v-21.16h0.37l13.38,17.35
		c0.4,0.52,0.95,1.38,0.95,1.38s-0.09-0.95-0.09-1.57v-16.92h1.17v21.16h-0.37L88.07,141.13z"/>
	<path class="st0" d="M116.77,137.32h4.74c5.72,0,8.64,3.17,8.64,7.87c0,4.61-2.92,7.84-8.64,7.84h-2.52v5.2h-2.21V137.32z
		 M121.38,151.1c4.71,0,6.46-2.46,6.46-5.91s-1.75-5.91-6.46-5.91h-2.4v11.81H121.38z"/>
	<path class="st0" d="M143.65,137.32h12.73v1.97h-10.52v9.81h9.38v1.94h-9.38v5.23h10.95v1.97h-13.16V137.32z"/>
	<path class="st0" d="M183.97,158.23h-2.61l-4.03-5.72c-0.71,0.12-1.48,0.18-2.21,0.18h-2.49v5.54h-2.21v-20.91h4.71
		c5.72,0,8.67,3.2,8.67,7.72c0,3.14-1.48,5.6-4.37,6.77L183.97,158.23z M174.99,150.76c4.74,0,6.49-2.43,6.49-5.72
		c0-3.29-1.78-5.75-6.49-5.75h-2.37v11.47H174.99z"/>
	<path class="st0" d="M197.66,137.32h12.73v1.97h-10.52v9.81h9.38v1.94h-9.38v5.23h10.95v1.97h-13.16V137.32z"/>
	<path class="st0" d="M222.26,154.97l2.64-1.63c0.74,1.32,1.6,2.25,3.14,2.25c1.75,0,2.89-0.83,2.89-3.26v-15.01h3.26v15.07
		c0,4.15-2.49,6.12-6,6.12C225.09,158.51,223.25,156.91,222.26,154.97z"/>
	<path class="st0" d="M254.44,137.1h0.37l9.17,21.13h-3.38l-1.2-2.95h-9.57l-1.2,2.95h-3.14L254.44,137.1z M258.22,152.54
		l-2.61-6.52c-0.52-1.23-1.05-3.11-1.05-3.11s-0.49,1.88-1.02,3.11l-2.61,6.52H258.22z"/>
	<path class="st0" d="M276.43,137.32h3.23v20.91h-3.23V137.32z"/>
	<path class="st0" d="M301.03,137.1h0.37l9.17,21.13h-3.38l-1.2-2.95h-9.57l-1.2,2.95h-3.14L301.03,137.1z M304.81,152.54
		l-2.61-6.52c-0.52-1.23-1.05-3.11-1.05-3.11s-0.49,1.88-1.02,3.11l-2.61,6.52H304.81z"/>
</g>
<g>
	<path class="st0" d="M168.1,109.75l-0.17-0.06c-0.37-0.13-36.93-13.19-38.19-53.02l0-29.54h75.86v28.68
		c0.02,0.36,2.09,39.2-37.33,53.88L168.1,109.75z M130.76,28.15v28.5c1.19,37.71,34.63,51,37.33,52.01
		c38.51-14.46,36.51-52.43,36.49-52.82l0-27.69H130.76z"/>
</g>
<g>
	<path class="st0" d="M139.06,57.27c-2.42,0-4.38-1.97-4.38-4.38c0-2.42,1.97-4.38,4.38-4.38s4.38,1.97,4.38,4.38
		C143.44,55.31,141.48,57.27,139.06,57.27z M139.06,49.53c-1.85,0-3.36,1.51-3.36,3.36c0,1.85,1.51,3.36,3.36,3.36
		c1.85,0,3.36-1.51,3.36-3.36C142.42,51.04,140.91,49.53,139.06,49.53z"/>
</g>
<g>
	<path class="st0" d="M149.44,57.27c-2.42,0-4.38-1.97-4.38-4.38c0-2.42,1.97-4.38,4.38-4.38s4.38,1.97,4.38,4.38
		C153.82,55.31,151.86,57.27,149.44,57.27z M149.44,49.53c-1.85,0-3.36,1.51-3.36,3.36c0,1.85,1.51,3.36,3.36,3.36
		c1.85,0,3.36-1.51,3.36-3.36C152.8,51.04,151.29,49.53,149.44,49.53z"/>
</g>
<g>
	<path class="st0" d="M159.76,57.27c-2.42,0-4.38-1.97-4.38-4.38c0-2.42,1.97-4.38,4.38-4.38s4.38,1.97,4.38,4.38
		C164.14,55.31,162.18,57.27,159.76,57.27z M159.76,49.53c-1.85,0-3.36,1.51-3.36,3.36c0,1.85,1.51,3.36,3.36,3.36
		c1.85,0,3.36-1.51,3.36-3.36C163.12,51.04,161.61,49.53,159.76,49.53z"/>
</g>
<g>
	<rect x="167.5" y="27.79" class="st0" width="1.03" height="81.41"/>
</g>
<g>
	<rect x="168.23" y="55.3" class="st0" width="36.86" height="1.03"/>
</g>
<g>
	<path class="st0" d="M144.5,66.83c-2.42,0-4.38-1.97-4.38-4.38s1.97-4.38,4.38-4.38s4.38,1.97,4.38,4.38S146.92,66.83,144.5,66.83z
		 M144.5,59.09c-1.85,0-3.36,1.51-3.36,3.36c0,1.85,1.51,3.36,3.36,3.36c1.85,0,3.36-1.51,3.36-3.36
		C147.86,60.59,146.35,59.09,144.5,59.09z"/>
</g>
<g>
	<path class="st0" d="M154.85,66.83c-2.42,0-4.38-1.97-4.38-4.38s1.97-4.38,4.38-4.38s4.38,1.97,4.38,4.38
		S157.27,66.83,154.85,66.83z M154.85,59.09c-1.85,0-3.36,1.51-3.36,3.36c0,1.85,1.51,3.36,3.36,3.36c1.85,0,3.36-1.51,3.36-3.36
		C158.21,60.59,156.7,59.09,154.85,59.09z"/>
</g>
<g>
	<path class="st0" d="M149.44,76.36c-2.42,0-4.38-1.97-4.38-4.38c0-2.42,1.97-4.38,4.38-4.38s4.38,1.97,4.38,4.38
		C153.82,74.4,151.86,76.36,149.44,76.36z M149.44,68.63c-1.85,0-3.36,1.51-3.36,3.36s1.51,3.36,3.36,3.36
		c1.85,0,3.36-1.51,3.36-3.36S151.29,68.63,149.44,68.63z"/>
</g>
<g>
	<path class="st0" d="M204.94,40.26l-0.5-0.1c-3.59-0.69-5.28-2.52-6.04-3.8c-0.64,1.49-2.16,3.67-5.66,3.81
		c-3.47,0.13-5.28-1.98-6.12-3.49c-0.66,1.45-2.3,3.14-5.91,3.28c-3.57,0.11-5.22-1.7-5.96-3.14c-1.21,2.6-4.47,3.35-6.29,3.35
		h-0.51l0-1.02l0.51,0c0.22,0,5.34-0.06,5.71-4.1l1.02-0.03c0.02,0.17,0.65,4.12,5.49,3.91c5.17-0.2,5.31-3.81,5.31-3.84l1.01-0.13
		c0.05,0.18,1.21,4.42,5.7,4.18c4.47-0.19,5.09-4.16,5.11-4.33l1.01-0.04c0.03,0.14,0.85,3.42,5.82,4.38l0.5,0.1L204.94,40.26z"/>
</g>
<g>
	<path class="st0" d="M205.2,49.85l-0.5-0.1c-3.59-0.69-5.28-2.52-6.04-3.8c-0.64,1.49-2.16,3.67-5.66,3.81
		c-3.47,0.12-5.28-1.98-6.12-3.49c-0.66,1.45-2.3,3.14-5.91,3.28c-3.57,0.1-5.22-1.7-5.96-3.14c-1.21,2.6-4.47,3.35-6.29,3.35h-0.51
		l0-1.02l0.51,0c0.22,0,5.34-0.06,5.71-4.1l1.02-0.03c0.02,0.17,0.66,4.13,5.49,3.91c5.17-0.2,5.31-3.81,5.31-3.84l1.01-0.13
		c0.05,0.18,1.21,4.41,5.7,4.18c4.47-0.19,5.09-4.16,5.11-4.33l1.01-0.04c0.03,0.14,0.85,3.42,5.82,4.38l0.5,0.1L205.2,49.85z"/>
</g>
<g>
	<polygon class="st0" points="185.92,88.94 174.74,77.72 168.5,83.98 167.77,83.26 174.74,76.26 185.92,87.49 191.77,81.62 
		196.46,86.33 195.73,87.06 191.77,83.07 	"/>
</g>
<g>
	<rect x="184.87" y="69.15" class="st0" width="1.03" height="18.06"/>
</g>
<g>
	
		<rect x="185.14" y="71.97" transform="matrix(0.8088 -0.5881 0.5881 0.8088 -6.9313 123.6384)" class="st0" width="3.1" height="1.02"/>
</g>
<g>
	
		<rect x="183.2" y="72.12" transform="matrix(0.5547 -0.832 0.832 0.5547 20.2657 185.7877)" class="st0" width="1.03" height="3.67"/>
</g>
<g>
	<path class="st0" d="M183.14,78.13c-2.99-0.91-5-3.63-5-6.76c0-3.9,3.17-7.07,7.07-7.07c3.9,0,7.07,3.17,7.07,7.07
		c0,3.07-1.96,5.78-4.89,6.72l-0.32-0.98c2.5-0.81,4.18-3.12,4.18-5.75c0-3.33-2.71-6.04-6.04-6.04s-6.04,2.71-6.04,6.04
		c0,2.68,1.72,5,4.27,5.78L183.14,78.13z"/>
</g>
<g>
	<path class="st0" d="M90.39,65.63l3.3-3.25c1.02-1,1.58-1.58,1.58-2.4c0-0.79-0.56-1.23-1.33-1.23c-0.89,0-1.39,0.59-1.71,1.51
		l-1.58-0.44c0.41-1.64,1.66-2.58,3.27-2.58c2,0,3.07,1.18,3.07,2.64c0,1.1-0.72,2.17-1.82,3.17l-0.77,0.71
		c-0.31,0.28-0.9,0.67-0.9,0.67s0.72-0.07,1.02-0.07h2.63v1.43h-6.74V65.63z"/>
	<path class="st0" d="M102.35,61.58c0-2.54,2.1-4.33,4.43-4.33c2.36,0,4.46,1.79,4.46,4.33c0,2.53-2.1,4.37-4.46,4.37
		C104.45,65.94,102.35,64.1,102.35,61.58z M109.49,61.58c0-1.72-1.18-2.86-2.71-2.86c-1.49,0-2.68,1.13-2.68,2.86
		c0,1.71,1.18,2.87,2.68,2.87C108.31,64.45,109.49,63.28,109.49,61.58z"/>
	<path class="st0" d="M225.66,58.77h-1.74v-1.39h3.43v8.42h-1.69V58.77z"/>
	<path class="st0" d="M240.73,64.3v1.31h-1.18v1.72h-1.64v-1.72h-5.05V64.6l6.5-7.35h0.2v7.06H240.73z M237.91,61.68
		c0-0.34,0.07-1,0.07-1s-0.3,0.44-0.56,0.74l-1.97,2.33c-0.28,0.31-0.64,0.61-0.64,0.61s0.41-0.05,0.82-0.05h2.28V61.68z"/>
</g>
</svg>
